HIERARCHY
ROOT Hips
{
  OFFSET 52.5838 91.7977 4.54505
  CHANNELS 6 Xposition Yposition Zposition Zrotation Xrotation Yrotation
  JOINT spine
  {
    OFFSET 0 6.84637 0.3937
    CHANNELS 3 Zrotation Xrotation Yrotation
    JOINT spine1
    {
      OFFSET 0 9.49621 0
      CHANNELS 3 Zrotation Xrotation Yrotation
      JOINT spine2
      {
        OFFSET 0 9.09909 0
        CHANNELS 3 Zrotation Xrotation Yrotation
        JOINT Neck
        {
          OFFSET 0 23.3612 1.11378
          CHANNELS 3 Zrotation Xrotation Yrotation
          JOINT Head
          {
            OFFSET 0 7.05802 0
            CHANNELS 3 Zrotation Xrotation Yrotation
            End Site
            {
              OFFSET 0 17.0844 -5.63419
            }
          }
        }
        JOINT RightShoulder
        {
          OFFSET -3.83136 9.82631 -0.533491
          CHANNELS 3 Zrotation Xrotation Yrotation
          JOINT RightArm
          {
            OFFSET 0 12.8881 0
            CHANNELS 3 Zrotation Xrotation Yrotation
            JOINT RightArmRoll
            {
              OFFSET 0 6.50617 0
              CHANNELS 3 Zrotation Xrotation Yrotation
              JOINT RightForeArm
              {
                OFFSET 0 18.9501 0
                CHANNELS 3 Zrotation Xrotation Yrotation
                JOINT RightForeArmRoll
                {
                  OFFSET 0 7.30092 0
                  CHANNELS 3 Zrotation Xrotation Yrotation
                  JOINT RightHand
                  {
                    OFFSET 0 14.6514 0
                    CHANNELS 3 Zrotation Xrotation Yrotation
                    End Site
                    {
                      OFFSET 0 0 0
                    }
                  }
                }
              }
            }
          }
        }
        JOINT LeftShoulder
        {
          OFFSET 3.83136 9.82631 -0.533491
          CHANNELS 3 Zrotation Xrotation Yrotation
          JOINT LeftArm
          {
            OFFSET 0 12.8881 0
            CHANNELS 3 Zrotation Xrotation Yrotation
            JOINT LeftArmRoll
            {
              OFFSET 0 6.50617 0
              CHANNELS 3 Zrotation Xrotation Yrotation
              JOINT LeftForeArm
              {
                OFFSET 0 18.9501 0
                CHANNELS 3 Zrotation Xrotation Yrotation
                JOINT LeftForeArmRoll
                {
                  OFFSET 0 7.30093 0
                  CHANNELS 3 Zrotation Xrotation Yrotation
                  JOINT LeftHand
                  {
                    OFFSET 0 14.6514 0
                    CHANNELS 3 Zrotation Xrotation Yrotation
                    End Site
                    {
                      OFFSET 0 0 0
                    }
                  }
                }
              }
            }
          }
        }
      }
    }
  }
  JOINT RightUpLeg
  {
    OFFSET -6.06837 -1.11278 -0.933477
    CHANNELS 3 Zrotation Xrotation Yrotation
    JOINT RightUpLegRoll
    {
      OFFSET 0 17.1796 0
      CHANNELS 3 Zrotation Xrotation Yrotation
      JOINT RightLeg
      {
        OFFSET 0 -21.2743 0
        CHANNELS 3 Zrotation Xrotation Yrotation
        JOINT RightLegRoll
        {
          OFFSET 0 21.3439 0
          CHANNELS 3 Zrotation Xrotation Yrotation
          JOINT RightFoot
          {
            OFFSET 0 17.7652 0
            CHANNELS 3 Zrotation Xrotation Yrotation
            JOINT RightToeBase
            {
              OFFSET 0 14.8508 0
              CHANNELS 3 Zrotation Xrotation Yrotation
              End Site
              {
                OFFSET 0.0062947 7.19214 -0.829005
              }
            }
          }
        }
      }
    }
  }
  JOINT LeftUpLeg
  {
    OFFSET 6.06837 -1.11278 -0.933477
    CHANNELS 3 Zrotation Xrotation Yrotation
    JOINT LeftUpLegRoll
    {
      OFFSET 0 17.1797 0
      CHANNELS 3 Zrotation Xrotation Yrotation
      JOINT LeftLeg
      {
        OFFSET 0 21.2742 0
        CHANNELS 3 Zrotation Xrotation Yrotation
        JOINT LeftLegRoll
        {
          OFFSET 0 21.5412 0
          CHANNELS 3 Zrotation Xrotation Yrotation
          JOINT LeftFoot
          {
            OFFSET 0 17.5679 0
            CHANNELS 3 Zrotation Xrotation Yrotation
            JOINT LeftToeBase
            {
              OFFSET 0 14.8508 0
              CHANNELS 3 Zrotation Xrotation Yrotation
              End Site
              {
                OFFSET -0.0282102 7.19214 -0.829005
              }
            }
          }
        }
      }
    }
  }
}
MOTION
Frames: 4
Frame Time: 0.00208333
53.9331 91.7347 4.90521 1.97344 -0.2378 -11.0982 0.0424368 -2.00348 0.213631 0.0745256 -0.000893176 0.423318 0.0697646 1.64415 0.422234 -3.90925 31.9771 3.28694 0.290609 -14.4337 1.553 73.1284 6.24255 1.21594 100.607 3.41424 9.28678 -9.68487e-006 -7.59773e-007 -7.13843e-006 13.9545 16.5169 -2.94319 -1.93122e-006 5.93722e-006 -3 8.02887 -4.95145 0.697704 -74.2902 6.25015 -1.0178 -101.055 9.49 -15.9782 -5.90463e-007 1.34958e-008 3.24411e-006 -16.1734 14.2702 2.73012 1.41244e-005 -4.23928e-006 3 -8.02901 -4.95142 -0.697699 173.435 4.58184 2.57182 180 7.01548e-015 178.929 177.452 7.17399 179.928 -3.05901e-007 -6.6868e-007 0.0772466 -18.6295 67.8461 19.407 8.13648 25.2327 -3.48773 -175.529 1.44713 0.174582 4.54188e-006 -4.6773e-006 -1.09263 -1.75579 -5.02551 0.0584626 -2.31802e-006 -1.13788e-006 -0.0423511 18.5375 67.6794 -19.2664 -8.1365 25.2327 3.48774 
53.9323 91.7338 4.89996 1.9718 -0.238213 -11.0954 0.0406377 -2.00234 0.210282 0.0720087 0.00116189 0.416753 0.0673048 1.64621 0.415706 -3.86258 32.0123 3.27359 0.254441 -14.439 1.55213 73.1449 6.22475 1.20501 100.598 3.41507 9.31907 -9.68487e-006 -7.59773e-007 -7.13843e-006 13.9283 16.5693 -2.94975 -1.93122e-006 5.93722e-006 -3 8.02887 -4.95145 0.697704 -74.2506 6.25599 -1.02726 -101.096 9.50284 -16.0238 -5.90463e-007 1.34958e-008 3.24411e-006 -16.1276 14.218 2.71624 1.41244e-005 -4.23928e-006 3 -8.02901 -4.95142 -0.697699 173.434 4.57717 2.5753 180 7.01548e-015 178.929 177.446 7.16551 179.929 -3.05901e-007 -6.6868e-007 0.0772466 -18.6287 67.8451 19.4061 8.13648 25.2327 -3.48773 -175.524 1.44819 0.170873 4.54188e-006 -4.6773e-006 -1.09263 -1.75721 -5.02462 0.058365 -2.31802e-006 -1.13788e-006 -0.0423511 18.5378 67.6797 -19.2667 -8.1365 25.2327 3.48774 
53.9278 91.7333 4.89526 1.97026 -0.238104 -11.0926 0.0387135 -2.00124 0.206908 0.0693012 0.00312702 0.410134 0.0646543 1.64818 0.409128 -3.81435 32.0466 3.25979 0.217736 -14.4431 1.55145 73.1616 6.20635 1.19376 100.588 3.41617 9.3514 -9.68487e-006 -7.59773e-007 -7.13843e-006 13.902 16.6223 -2.95643 -1.93122e-006 5.93722e-006 -3 8.02887 -4.95145 0.697704 -74.2084 6.26022 -1.03647 -101.141 9.51456 -16.0681 -5.90463e-007 1.34958e-008 3.24411e-006 -16.082 14.1705 2.7032 1.41244e-005 -4.23928e-006 3 -8.02901 -4.95142 -0.697699 173.433 4.57298 2.57877 180 7.01548e-015 178.929 177.44 7.15675 179.929 -3.05901e-007 -6.6868e-007 0.0772466 -18.6278 67.844 19.4051 8.13648 25.2327 -3.48773 -175.519 1.44991 0.166944 4.54188e-006 -4.6773e-006 -1.09263 -1.7588 -5.02388 0.0582497 -2.31802e-006 -1.13788e-006 -0.0423511 18.538 67.6799 -19.2669 -8.1365 25.2327 3.48774 
53.93 91.7321 4.90045 1.96877 -0.23763 -11.0897 0.0367019 -2.00017 0.203515 0.0664605 0.00502918 0.403477 0.0618705 1.65008 0.402513 -3.76502 32.0803 3.24568 0.180655 -14.4466 1.55088 73.1784 6.18752 1.18229 100.579 3.41747 9.38374 -9.68487e-006 -7.59773e-007 -7.13843e-006 13.8756 16.6759 -2.9632 -1.93122e-006 5.93722e-006 -3 8.02887 -4.95145 0.697704 -74.1643 6.26332 -1.0455 -101.187 9.52548 -16.1116 -5.90463e-007 1.34958e-008 3.24411e-006 -16.0365 14.1262 2.69076 1.41244e-005 -4.23928e-006 3 -8.02901 -4.95142 -0.697699 173.433 4.56912 2.58223 180 7.01548e-015 178.929 177.434 7.14785 179.929 -3.05901e-007 -6.6868e-007 0.0772466 -18.6268 67.8428 19.4041 8.13648 25.2327 -3.48773 -175.513 1.45208 0.162861 4.54188e-006 -4.6773e-006 -1.09263 -1.76048 -5.02324 0.058122 -2.31802e-006 -1.13788e-006 -0.0423511 18.5382 67.6801 -19.2671 -8.1365 25.2327 3.48774 
